<svg width="277" height="35" viewBox="0 0 277 35" fill="none" xmlns="http://www.w3.org/2000/svg">
<path d="M29.3067 2.79112H4.18674C3.44649 2.79112 2.73656 3.08519 2.21313 3.60862C1.68969 4.13205 1.39563 4.84198 1.39563 5.58223V8.37334H32.0979V5.58223C32.0979 4.84198 31.8038 4.13205 31.2804 3.60862C30.7569 3.08519 30.047 2.79112 29.3067 2.79112ZM5.5823 6.97779C5.30628 6.97779 5.03647 6.89594 4.80697 6.7426C4.57747 6.58925 4.3986 6.37129 4.29297 6.11629C4.18735 5.86129 4.15971 5.58069 4.21356 5.30997C4.2674 5.03926 4.40032 4.7906 4.59549 4.59543C4.79066 4.40025 5.03933 4.26734 5.31004 4.21349C5.58075 4.15965 5.86135 4.18728 6.11635 4.29291C6.37136 4.39853 6.58931 4.57741 6.74266 4.8069C6.896 5.0364 6.97785 5.30622 6.97785 5.58223C6.97785 5.95236 6.83082 6.30732 6.5691 6.56904C6.30739 6.83076 5.95242 6.97779 5.5823 6.97779ZM9.76896 6.97779C9.49295 6.97779 9.22313 6.89594 8.99363 6.7426C8.76414 6.58925 8.58526 6.37129 8.47964 6.11629C8.37401 5.86129 8.34638 5.58069 8.40022 5.30997C8.45407 5.03926 8.58699 4.7906 8.78216 4.59543C8.97733 4.40025 9.22599 4.26734 9.4967 4.21349C9.76742 4.15965 10.048 4.18728 10.303 4.29291C10.558 4.39853 10.776 4.57741 10.9293 4.8069C11.0827 5.0364 11.1645 5.30622 11.1645 5.58223C11.1634 5.95202 11.016 6.30634 10.7546 6.56782C10.4931 6.8293 10.1387 6.97668 9.76896 6.97779V6.97779ZM32.0979 15.3511V9.7689H1.39563V29.3067C1.39563 30.0469 1.68969 30.7569 2.21313 31.2803C2.73656 31.8037 3.44649 32.0978 4.18674 32.0978H29.3067C30.047 32.0978 30.7569 31.8037 31.2804 31.2803C31.8038 30.7569 32.0979 30.0469 32.0979 29.3067V15.3511Z" fill="url(#paint0_linear_886_20)"/>
<path d="M68.2752 10.101C68.5195 10.9355 68.7841 11.882 69.069 12.9404C69.3743 13.9785 69.6898 15.0572 70.0155 16.1767C70.3615 17.2962 70.7076 18.4157 71.0536 19.5352C71.3996 20.6547 71.7355 21.6928 72.0611 22.6494C72.3257 21.6114 72.5903 20.4817 72.8549 19.2604C73.1399 18.0392 73.4045 16.7772 73.6488 15.4745C73.893 14.1718 74.1271 12.8793 74.351 11.597C74.5952 10.2943 74.8191 9.04253 75.0227 7.84162H79.9688C79.2564 11.3833 78.432 14.9758 77.4957 18.6193C76.5798 22.2627 75.5824 25.7229 74.5036 29H70.1376C69.4252 27.046 68.7332 25.0004 68.0615 22.8632C67.3898 20.7056 66.7283 18.548 66.0769 16.3905C65.4256 18.548 64.7743 20.7056 64.1229 22.8632C63.4716 25.0004 62.7897 27.046 62.0773 29H57.7113C56.6325 25.7229 55.625 22.2627 54.6887 18.6193C53.7727 14.9758 52.9585 11.3833 52.2461 7.84162H57.406C57.6095 9.04253 57.8334 10.2943 58.0777 11.597C58.3219 12.8793 58.5763 14.1718 58.841 15.4745C59.1056 16.7772 59.3702 18.0392 59.6348 19.2604C59.9197 20.4817 60.2047 21.6114 60.4897 22.6494C60.856 21.6521 61.2122 20.5936 61.5583 19.4741C61.9043 18.3547 62.2401 17.2352 62.5658 16.1157C62.8915 14.9962 63.1866 13.9174 63.4512 12.8793C63.7362 11.8413 63.9906 10.9151 64.2145 10.101H68.2752ZM83.0294 29V7.84162H97.3181V11.8413H87.7923V15.9935H96.2495V19.9016H87.7923V25.0004H98.0204V29H83.0294ZM108.598 29.2748C107.438 29.2748 106.277 29.2341 105.117 29.1527C103.977 29.0916 102.787 28.9288 101.545 28.6642V8.14693C102.522 7.96374 103.591 7.83144 104.751 7.75002C105.911 7.64825 106.99 7.59736 107.987 7.59736C109.331 7.59736 110.562 7.69914 111.682 7.90268C112.821 8.08587 113.798 8.41154 114.613 8.87969C115.427 9.34784 116.058 9.96865 116.506 10.7421C116.974 11.4952 117.208 12.4315 117.208 13.551C117.208 15.2404 116.394 16.5736 114.765 17.5507C116.109 18.0595 117.025 18.7516 117.513 19.6268C118.002 20.502 118.246 21.4892 118.246 22.5884C118.246 24.807 117.432 26.4761 115.803 27.5955C114.195 28.715 111.794 29.2748 108.598 29.2748ZM106.186 19.7795V25.2446C106.532 25.2853 106.908 25.3159 107.316 25.3362C107.723 25.3566 108.17 25.3667 108.659 25.3667C110.084 25.3667 111.234 25.1632 112.109 24.7561C112.984 24.349 113.422 23.5959 113.422 22.4968C113.422 21.5198 113.055 20.8277 112.323 20.4206C111.59 19.9932 110.542 19.7795 109.178 19.7795H106.186ZM106.186 16.1462H108.506C109.972 16.1462 111.02 15.963 111.651 15.5966C112.282 15.2099 112.598 14.5993 112.598 13.7647C112.598 12.9099 112.272 12.3094 111.621 11.9634C110.969 11.6174 110.013 11.4443 108.751 11.4443C108.343 11.4443 107.906 11.4545 107.438 11.4749C106.97 11.4749 106.552 11.4952 106.186 11.5359V16.1462ZM127.829 25.3667C128.501 25.3667 129.05 25.3159 129.478 25.2141C129.925 25.092 130.282 24.9393 130.546 24.7561C130.811 24.5526 130.994 24.3185 131.096 24.0539C131.198 23.7893 131.248 23.4941 131.248 23.1685C131.248 22.4764 130.923 21.9065 130.271 21.4587C129.62 20.9905 128.501 20.4919 126.913 19.9627C126.221 19.7184 125.529 19.4436 124.837 19.1383C124.145 18.8126 123.524 18.4157 122.974 17.9476C122.425 17.4591 121.977 16.879 121.631 16.2073C121.285 15.5152 121.112 14.6807 121.112 13.7037C121.112 12.7267 121.295 11.8514 121.662 11.078C122.028 10.2841 122.547 9.61245 123.219 9.06288C123.89 8.51331 124.705 8.09605 125.661 7.81109C126.618 7.50577 127.697 7.35311 128.898 7.35311C130.322 7.35311 131.554 7.50577 132.592 7.81109C133.63 8.1164 134.485 8.45225 135.157 8.81863L133.783 12.574C133.192 12.2687 132.531 12.0041 131.798 11.7802C131.086 11.5359 130.221 11.4138 129.203 11.4138C128.063 11.4138 127.239 11.5766 126.73 11.9023C126.241 12.2076 125.997 12.686 125.997 13.3373C125.997 13.724 126.089 14.0497 126.272 14.3143C126.455 14.5789 126.709 14.8232 127.035 15.0471C127.381 15.2506 127.768 15.444 128.195 15.6272C128.643 15.79 129.132 15.963 129.661 16.1462C130.76 16.5533 131.717 16.9604 132.531 17.3675C133.345 17.7542 134.017 18.2122 134.546 18.7414C135.095 19.2706 135.503 19.8914 135.767 20.6038C136.032 21.3162 136.164 22.1813 136.164 23.199C136.164 25.1734 135.472 26.7101 134.088 27.8093C132.704 28.8881 130.618 29.4274 127.829 29.4274C126.893 29.4274 126.048 29.3664 125.295 29.2443C124.542 29.1425 123.87 29.0102 123.28 28.8473C122.71 28.6845 122.211 28.5115 121.784 28.3283C121.377 28.1451 121.031 27.9721 120.746 27.8093L122.089 24.0234C122.72 24.3694 123.493 24.6849 124.409 24.9698C125.346 25.2344 126.486 25.3667 127.829 25.3667ZM139.829 7.84162H144.592V29H139.829V7.84162ZM165.182 7.84162V11.9023H158.801V29H154.038V11.9023H147.657V7.84162H165.182ZM168.243 29V7.84162H182.532V11.8413H173.006V15.9935H181.464V19.9016H173.006V25.0004H183.234V29H168.243ZM199.712 7.84162C200.078 8.51331 200.495 9.34784 200.964 10.3452C201.452 11.3222 201.951 12.3908 202.46 13.551C202.989 14.6909 203.508 15.8612 204.017 17.0622C204.526 18.2631 205.004 19.3927 205.452 20.4512C205.899 19.3927 206.378 18.2631 206.887 17.0622C207.396 15.8612 207.904 14.6909 208.413 13.551C208.942 12.3908 209.441 11.3222 209.909 10.3452C210.398 9.34784 210.825 8.51331 211.192 7.84162H215.527C215.731 9.24607 215.914 10.8235 216.077 12.574C216.26 14.3041 216.413 16.1157 216.535 18.0086C216.677 19.8812 216.799 21.764 216.901 23.657C217.023 25.5499 217.125 27.3309 217.206 29H212.566C212.504 26.9442 212.423 24.7052 212.321 22.2831C212.22 19.8609 212.067 17.4184 211.863 14.9555C211.497 15.8104 211.09 16.7568 210.642 17.7949C210.194 18.833 209.746 19.8711 209.299 20.9091C208.871 21.9472 208.454 22.9446 208.047 23.9012C207.64 24.8375 207.294 25.6415 207.009 26.3132H203.681C203.396 25.6415 203.05 24.8375 202.643 23.9012C202.236 22.9446 201.808 21.9472 201.36 20.9091C200.933 19.8711 200.495 18.833 200.048 17.7949C199.6 16.7568 199.193 15.8104 198.826 14.9555C198.623 17.4184 198.47 19.8609 198.368 22.2831C198.267 24.7052 198.185 26.9442 198.124 29H193.483C193.565 27.3309 193.656 25.5499 193.758 23.657C193.88 21.764 194.002 19.8812 194.124 18.0086C194.267 16.1157 194.42 14.3041 194.582 12.574C194.766 10.8235 194.959 9.24607 195.163 7.84162H199.712ZM221.495 29V7.84162H235.784V11.8413H226.258V15.9935H234.715V19.9016H226.258V25.0004H236.486V29H221.495ZM255.704 7.84162V11.9023H249.323V29H244.56V11.9023H238.179V7.84162H255.704ZM270.427 29C270.203 28.2672 269.949 27.5141 269.664 26.7407C269.399 25.9672 269.134 25.1937 268.87 24.4203H260.626C260.362 25.1937 260.087 25.9672 259.802 26.7407C259.537 27.5141 259.293 28.2672 259.069 29H254.123C254.917 26.7203 255.67 24.6136 256.382 22.68C257.095 20.7463 257.787 18.9246 258.459 17.2148C259.151 15.505 259.822 13.8869 260.474 12.3603C261.145 10.8134 261.837 9.30713 262.55 7.84162H267.099C267.791 9.30713 268.473 10.8134 269.145 12.3603C269.816 13.8869 270.488 15.505 271.16 17.2148C271.852 18.9246 272.554 20.7463 273.266 22.68C273.979 24.6136 274.732 26.7203 275.526 29H270.427ZM264.718 12.6351C264.616 12.9404 264.463 13.3577 264.26 13.8869C264.056 14.4161 263.822 15.0267 263.557 15.7188C263.293 16.4108 262.998 17.1741 262.672 18.0086C262.367 18.8432 262.051 19.7184 261.725 20.6343H267.74C267.414 19.7184 267.099 18.8432 266.794 18.0086C266.488 17.1741 266.193 16.4108 265.908 15.7188C265.644 15.0267 265.41 14.4161 265.206 13.8869C265.002 13.3577 264.84 12.9404 264.718 12.6351Z" fill="white"/>
<defs>
<linearGradient id="paint0_linear_886_20" x1="1.39563" y1="17.7701" x2="33.5162" y2="17.7701" gradientUnits="userSpaceOnUse">
<stop stop-color="#9916FF"/>
<stop offset="1" stop-color="#424FC2"/>
</linearGradient>
</defs>
</svg>
