<svg width="83" height="24" viewBox="0 0 83 24" fill="none" xmlns="http://www.w3.org/2000/svg">
<path d="M3.12276 20.3708C2.8074 17.4418 3.00424 15.8003 3.12276 12.7781C3.22333 10.2135 3.17544 6.73467 4.87565 4.82962C6.28348 3.25217 9.52168 2.45191 11.6895 3.42172C14.3859 4.62802 14.8319 8.63059 15.0751 11.1664C15.3342 13.8691 14.8424 17.806 17.1449 19.7842C19.0819 21.4484 24.1289 21.0761 25.8899 19.3151C28.3994 16.8056 26.817 7.0896 27.1226 3.42171" stroke="url(#paint0_linear_891_55)" stroke-width="4.40259" stroke-linecap="round" stroke-linejoin="round"/>
<path d="M41.4143 6.92679C42.7959 6.92679 43.8542 7.17477 44.5893 7.67073C45.3244 8.15783 45.6919 8.91947 45.6919 9.95567C45.6919 10.6022 45.5414 11.1291 45.2403 11.5365C44.948 11.9351 44.5229 12.2495 43.9649 12.4797C44.1509 12.71 44.3458 12.9757 44.5495 13.2768C44.7532 13.5691 44.9524 13.879 45.1473 14.2067C45.351 14.5256 45.5458 14.8621 45.7318 15.2163C45.9178 15.5617 46.0905 15.9027 46.2499 16.2393H43.9251C43.7568 15.9381 43.5841 15.6326 43.407 15.3226C43.2387 15.0127 43.0616 14.7115 42.8756 14.4193C42.6985 14.127 42.5214 13.8525 42.3442 13.5956C42.1671 13.3299 41.99 13.0908 41.8128 12.8783H40.7899V16.2393H38.7175V7.16591C39.1692 7.07735 39.6342 7.01536 40.1124 6.97993C40.5995 6.9445 41.0335 6.92679 41.4143 6.92679ZM41.5339 8.69364C41.3833 8.69364 41.246 8.69806 41.1221 8.70692C41.0069 8.71578 40.8962 8.72463 40.7899 8.73349V11.231H41.3745C42.1538 11.231 42.7118 11.1336 43.0483 10.9387C43.3849 10.7439 43.5531 10.4118 43.5531 9.94238C43.5531 9.49071 43.3804 9.17188 43.035 8.9859C42.6985 8.79106 42.1981 8.69364 41.5339 8.69364ZM47.5782 16.2393V7.03307H53.7954V8.77334H49.6506V10.58H53.3304V12.2805H49.6506V14.499H54.1009V16.2393H47.5782ZM58.5139 16.2393C58.1508 15.4688 57.7921 14.6673 57.4379 13.8348C57.0836 13.0023 56.7471 12.1786 56.4282 11.3638C56.1094 10.549 55.8127 9.76968 55.5382 9.02575C55.2725 8.28181 55.0422 7.61759 54.8474 7.03307H57.1323C57.3094 7.56445 57.4999 8.14011 57.7035 8.76006C57.9161 9.37115 58.1287 9.98224 58.3412 10.5933C58.5626 11.2044 58.7752 11.7889 58.9789 12.3469C59.1826 12.9048 59.373 13.3875 59.5501 13.7949C59.7184 13.3875 59.9044 12.9048 60.1081 12.3469C60.3206 11.7889 60.5332 11.2044 60.7457 10.5933C60.9671 9.98224 61.1797 9.37115 61.3834 8.76006C61.5959 8.14011 61.7908 7.56445 61.9679 7.03307H64.1731C63.9694 7.61759 63.7347 8.28181 63.469 9.02575C63.2034 9.76968 62.9111 10.549 62.5923 11.3638C62.2734 12.1786 61.9369 13.0023 61.5826 13.8348C61.2284 14.6673 60.8697 15.4688 60.5066 16.2393H58.5139ZM70.7979 16.2393C70.6119 15.9381 70.3905 15.6149 70.1336 15.2695C69.8856 14.9152 69.6111 14.5654 69.31 14.22C69.0177 13.8658 68.7122 13.5292 68.3934 13.2104C68.0745 12.8827 67.7557 12.5949 67.4369 12.3469V16.2393H65.3645V7.03307H67.4369V10.5136C67.9771 9.94681 68.5173 9.35786 69.0576 8.74677C69.6067 8.12683 70.1159 7.55559 70.5853 7.03307H73.0429C72.4141 7.777 71.7809 8.49437 71.1433 9.18516C70.5145 9.87596 69.8502 10.5712 69.1506 11.2708C69.8856 11.8819 70.5942 12.6081 71.2761 13.4495C71.9669 14.2909 72.6267 15.2208 73.2555 16.2393H70.7979ZM78.0458 16.4252C77.3993 16.4252 76.8414 16.3367 76.372 16.1596C75.9026 15.9736 75.5129 15.7212 75.2029 15.4023C74.9018 15.0746 74.676 14.6894 74.5254 14.2466C74.3837 13.7949 74.3129 13.2989 74.3129 12.7587V7.03307H76.3853V12.586C76.3853 12.958 76.4251 13.2768 76.5048 13.5425C76.5934 13.7993 76.7085 14.0119 76.8502 14.1802C77.0008 14.3396 77.1779 14.4547 77.3816 14.5256C77.5941 14.5964 77.8244 14.6318 78.0724 14.6318C78.5772 14.6318 78.9846 14.4768 79.2946 14.1669C79.6134 13.8569 79.7728 13.3299 79.7728 12.586V7.03307H81.8452V12.7587C81.8452 13.2989 81.7699 13.7949 81.6194 14.2466C81.4688 14.6983 81.2385 15.0879 80.9286 15.4156C80.6186 15.7344 80.2245 15.9824 79.7462 16.1596C79.268 16.3367 78.7012 16.4252 78.0458 16.4252Z" fill="white"/>
<defs>
<linearGradient id="paint0_linear_891_55" x1="-2.06656" y1="11.8052" x2="32.4498" y2="11.8052" gradientUnits="userSpaceOnUse">
<stop stop-color="#BD00FF"/>
<stop offset="1" stop-color="#5369DD"/>
</linearGradient>
</defs>
</svg>
